# File created by Blade
# Date/Time:  Tue Apr 07 20:29:43 2015
#---------------------------------------------------------
:version 1.10
:name HOM
:units
  mass 1.0
  length 1.000000
  angle deg
:documentation
     Acclaim Skeleton File
:root
   axis xyz
   order TX TY TZ RX RY RZ
   position 0.000000 0.000000 0.000000
   orientation 0 0 0
:bonedata
   begin
      id 1
      name Spine_dum
      direction 0.000000 1.000000 0.000000
      length 4.885285
      axis 0.0 0.0 0.0 xyz
   end
   begin
      id 2
      name LeftUpLeg_dum
      direction 1.000000 0.000000 0.000000
      length 2.672193
      axis 0.0 0.0 0.0 xyz
   end
   begin
      id 3
      name RightUpLeg_dum
      direction -1.000000 0.000000 0.000000
      length 2.672193
      axis 0.0 0.0 0.0 xyz
   end
   begin
      id 4
      name Spine
      direction 0.000000 1.000000 0.000000
      length 0.000000
      axis 0.0 0.0 0.0 xyz
      dof rx ry rz
   end
   begin
      id 5
      name Spine_dum1
      direction 0.000000 1.000000 0.000000
      length 16.494159
      axis 0.0 0.0 0.0 xyz
   end
   begin
      id 6
      name Spine_dum2
      direction 0.000000 1.000000 0.000000
      length 10.663448
      axis 0.0 0.0 0.0 xyz
   end
   begin
      id 7
      name Spine_dum3
      direction 0.000000 1.000000 0.000000
      length 10.663448
      axis 0.0 0.0 0.0 xyz
   end
   begin
      id 8
      name Head
      direction 0.000000 1.000000 0.000000
      length 4.527550
      axis 0.0 0.0 0.0 xyz
      dof rx ry rz
   end
   begin
      id 9
      name LeftShoulder
      direction 1.000000 0.000000 0.000000
      length 7.531907
      axis 0.0 0.0 -90.0 xyz
      dof rx ry rz
   end
   begin
      id 10
      name LeftArm
      direction 1.000000 0.000000 0.000000
      length 10.229199
      axis 0.0 0.0 -90.0 xyz
      dof rx ry rz
   end
   begin
      id 11
      name LeftForeArm
      direction 1.000000 0.000000 0.000000
      length 8.673495
      axis 0.0 0.0 -90.0 xyz
      dof ry rz rx
   end
   begin
      id 12
      name LeftHand
      direction 0.000000 0.000000 0.000000
      length 0.000000
      axis 0.0 0.0 -90.0 xyz
      dof rx ry rz
   end
   begin
      id 13
      name LeftHand_dum1
      direction 0.000000 0.000000 0.000000
      length 0.000000
      axis 0.0 0.0 -90.0 xyz
   end
   begin
      id 14
      name LeftHand_dum2
      direction 1.000000 0.000000 0.000000
      length 3.937000
      axis 0.0 0.0 -90.0 xyz
   end
   begin
      id 15
      name LeftHandThumb1
      direction 0.000000 0.000000 1.000000
      length 3.937000
      axis 0.0 0.0 -90.0 xyz
      dof rx rz ry
   end
   begin
      id 16
      name RightShoulder
      direction -1.000000 0.000000 0.000000
      length 7.531907
      axis 0.0 0.0 90.0 xyz
      dof rx ry rz
   end
   begin
      id 17
      name RightArm
      direction -1.000000 0.000000 0.000000
      length 10.229199
      axis 0.0 0.0 90.0 xyz
      dof rx ry rz
   end
   begin
      id 18
      name RightForeArm
      direction -1.000000 0.000000 0.000000
      length 8.673495
      axis 0.0 0.0 90.0 xyz
      dof ry rz rx
   end
   begin
      id 19
      name RightHand
      direction 0.000000 0.000000 0.000000
      length 0.000000
      axis 0.0 0.0 90.0 xyz
      dof rx ry rz
   end
   begin
      id 20
      name RightHand_dum1
      direction 0.000000 0.000000 0.000000
      length 0.000000
      axis 0.0 0.0 90.0 xyz
   end
   begin
      id 21
      name RightHand_dum2
      direction -1.000000 0.000000 0.000000
      length 3.937000
      axis 0.0 0.0 90.0 xyz
   end
   begin
      id 22
      name RightHandThumb1
      direction 0.000000 0.000000 1.000000
      length 3.937000
      axis 0.0 0.0 90.0 xyz
      dof rx rz ry
   end
   begin
      id 23
      name LeftUpLeg
      direction 0.000000 -1.000000 0.000000
      length 16.263388
      axis 0.0 0.0 0.0 xyz
      dof rx ry rz
   end
   begin
      id 24
      name LeftLeg
      direction 0.000000 -1.000000 0.000000
      length 14.328163
      axis 0.0 0.0 0.0 xyz
      dof rx ry rz
   end
   begin
      id 25
      name LeftFoot
      direction 0.000000 -0.258819 0.965926
      length 5.031290
      axis 15.0 0.0 0.0 xyz
      dof rx ry rz
   end
   begin
      id 26
      name LeftToeBase
      direction 0.000000 0.000000 1.000000
      length 2.952750
      axis 0.0 0.0 0.0 xyz
      dof rx ry rz
   end
   begin
      id 27
      name RightUpLeg
      direction 0.000000 -1.000000 0.000000
      length 16.263388
      axis 0.0 0.0 0.0 xyz
      dof rx ry rz
   end
   begin
      id 28
      name RightLeg
      direction 0.000000 -1.000000 0.000000
      length 14.328163
      axis 0.0 0.0 0.0 xyz
      dof rx ry rz
   end
   begin
      id 29
      name RightFoot
      direction 0.000000 -0.258819 0.965926
      length 5.031290
      axis 15.0 0.0 0.0 xyz
      dof rx ry rz
   end
   begin
      id 30
      name RightToeBase
      direction 0.000000 0.000000 1.000000
      length 2.952750
      axis 0.0 0.0 0.0 xyz
      dof rx ry rz
   end
:hierarchy
   begin
      root Spine_dum LeftUpLeg_dum RightUpLeg_dum
      Spine_dum Spine
      LeftUpLeg_dum LeftUpLeg
      RightUpLeg_dum RightUpLeg
      Spine Spine_dum1 Spine_dum2 Spine_dum3
      Spine_dum1 Head
      Spine_dum2 LeftShoulder
      Spine_dum3 RightShoulder
      LeftShoulder LeftArm
      LeftArm LeftForeArm
      LeftForeArm LeftHand
      LeftHand LeftHand_dum1 LeftHand_dum2
      LeftHand_dum1 LeftHandThumb1
      RightShoulder RightArm
      RightArm RightForeArm
      RightForeArm RightHand
      RightHand RightHand_dum1 RightHand_dum2
      RightHand_dum1 RightHandThumb1
      LeftUpLeg LeftLeg
      LeftLeg LeftFoot
      LeftFoot LeftToeBase
      RightUpLeg RightLeg
      RightLeg RightFoot
      RightFoot RightToeBase
   end

# File created by Blade
# Date/Time:  Tue Apr 07 20:29:34 2015
# Frame Rate: 120.000 fps
#------------------------------------------------------
:FULLY-SPECIFIED
:DEGREES
345
root 3.131974 33.201754 -2.903176 -15.531828 32.960018 -16.092177
Spine 7.526854 -5.773878 7.791192
Head 13.910238 0.550905 8.309410
LeftShoulder -16.362301 43.924904 10.023753
LeftArm 57.274556 19.989625 -68.137510
LeftForeArm -1.945221 -0.000000 38.296426
LeftHand 6.196780 -0.000000 -10.097854
LeftHandThumb1 -26.253704 0.000000 33.147579
RightShoulder -5.329089 -3.956426 -14.909453
RightArm 13.384404 -2.835864 84.676115
RightForeArm -1.974064 -0.000000 29.290531
RightHand 1.865125 -0.000000 8.127678
RightHandThumb1 -24.326973 -0.000000 -32.862282
LeftUpLeg 2.474413 -20.919295 8.434172
LeftLeg 15.164661 -0.000000 -0.000000
LeftFoot -8.877943 -0.961703 -9.500163
LeftToeBase -13.060661 -0.000000 0.000000
RightUpLeg -88.169122 11.945437 3.291993
RightLeg 115.536865 -0.000000 -0.000000
RightFoot 27.120990 9.418076 -0.234080
RightToeBase 22.613813 -0.000000 -0.000000
346
root 3.127260 33.208545 -2.896891 -15.553283 33.106902 -16.081865
Spine 7.486543 -5.760865 7.677237
Head 13.980129 0.500365 8.389994
LeftShoulder -16.279102 43.890357 10.185787
LeftArm 57.794742 20.583636 -67.361622
LeftForeArm -2.137001 0.000000 38.602876
LeftHand 6.269043 -0.000000 -9.920841
LeftHandThumb1 -26.253704 0.000000 33.147579
RightShoulder -5.266453 -3.899406 -14.936871
RightArm 13.511153 -3.033237 84.745351
RightForeArm -1.933520 -0.000000 29.509911
RightHand 1.859900 -0.000000 8.225457
RightHandThumb1 -24.326973 -0.000000 -32.862282
LeftUpLeg 2.360054 -20.722710 8.518685
LeftLeg 15.278543 -0.000000 -0.000000
LeftFoot -8.698388 -1.513471 -9.771721
LeftToeBase -13.082613 -0.000000 0.000000
RightUpLeg -88.210781 11.824334 3.312421
RightLeg 115.274884 -0.000000 -0.000000
RightFoot 27.334805 9.440268 -0.210391
RightToeBase 22.564435 -0.000000 -0.000000
347
root 3.126766 33.215464 -2.889711 -15.584086 33.277727 -16.060492
Spine 7.464195 -5.777194 7.557632
Head 14.002277 0.467817 8.458377
LeftShoulder -16.213358 43.822343 10.333885
LeftArm 58.240349 21.156948 -66.606357
LeftForeArm -2.327101 -0.000000 38.925205
LeftHand 6.337255 -0.000000 -9.838646
LeftHandThumb1 -26.253704 0.000000 33.147579
RightShoulder -5.216484 -3.896290 -14.974720
RightArm 13.669241 -3.279773 84.728402
RightForeArm -1.739208 -0.000000 29.707293
RightHand 1.989394 0.000000 8.264528
RightHandThumb1 -24.326973 -0.000000 -32.862282
LeftUpLeg 2.283527 -20.622081 8.549280
LeftLeg 15.366183 -0.000000 -0.000000
LeftFoot -8.504866 -1.935478 -9.968982
LeftToeBase -13.257291 -0.000000 0.000000
RightUpLeg -88.253874 11.659788 3.333584
RightLeg 114.982947 -0.000000 -0.000000
RightFoot 27.638783 9.376330 -0.144989
RightToeBase 22.965518 -0.000000 -0.000000
348
root 3.127292 33.222237 -2.884063 -15.604917 33.446800 -16.026976
Spine 7.433275 -5.780995 7.438925
Head 14.033108 0.424662 8.487763
LeftShoulder -16.124493 43.730382 10.493619
LeftArm 58.639863 21.690722 -65.887628
LeftForeArm -2.326096 0.000000 39.226839
LeftHand 6.357699 -0.000000 -9.776279
LeftHandThumb1 -26.253704 0.000000 33.147579
RightShoulder -5.166021 -3.890587 -14.995967
RightArm 13.769831 -3.468195 84.720057
RightForeArm -1.556621 0.000000 29.947139
RightHand 1.915476 -0.000000 8.176497
RightHandThumb1 -24.326973 -0.000000 -32.862282
LeftUpLeg 2.231396 -20.577535 8.538612
LeftLeg 15.425491 -0.000000 -0.000000
LeftFoot -8.323567 -2.215381 -10.046348
LeftToeBase -13.493900 -0.000000 0.000000
RightUpLeg -88.318851 11.479611 3.354988
RightLeg 114.654470 -0.000000 -0.000000
RightFoot 27.936276 9.325338 -0.068908
RightToeBase 22.330881 -0.000000 -0.000000
349
root 3.129571 33.227310 -2.880194 -15.644765 33.623092 -16.012836
Spine 7.411425 -5.806727 7.353825
Head 14.057067 0.396198 8.497104
LeftShoulder -16.042779 43.670564 10.636074
LeftArm 59.032439 22.170306 -65.206472
LeftForeArm -2.390970 -0.000000 39.515748
LeftHand 6.397494 -0.000000 -9.805893
LeftHandThumb1 -26.253704 0.000000 33.147579
RightShoulder -5.105890 -3.884516 -15.056705
RightArm 13.866401 -3.598901 84.728220
RightForeArm -1.569700 -0.000000 30.169049
RightHand 1.898408 -0.000000 7.991697
RightHandThumb1 -24.326973 -0.000000 -32.862282
LeftUpLeg 2.213491 -20.607779 8.506961
LeftLeg 15.457985 -0.000000 -0.000000
LeftFoot -8.188286 -2.362476 -10.057389
LeftToeBase -13.691904 -0.000000 0.000000
RightUpLeg -88.392679 11.254470 3.397787
RightLeg 114.290855 -0.000000 -0.000000
RightFoot 28.240930 9.202746 0.039351
RightToeBase 22.286760 -0.000000 -0.000000
350
root 3.133793 33.233273 -2.875742 -15.739096 33.791253 -16.023870
Spine 7.435703 -5.824736 7.303436
Head 14.070348 0.343492 8.473096
LeftShoulder -15.959677 43.602418 10.747878
LeftArm 59.388128 22.584831 -64.560114
LeftForeArm -2.293784 0.000000 39.797614
LeftHand 6.304881 -0.000000 -9.889829
LeftHandThumb1 -26.253704 0.000000 33.147579
RightShoulder -5.082322 -3.829264 -15.119126
RightArm 13.932092 -3.769349 84.670183
RightForeArm -1.621917 0.000000 30.330294
RightHand 1.889604 0.000000 7.724394
RightHandThumb1 -24.326973 -0.000000 -32.862282
LeftUpLeg 2.259380 -20.658316 8.461124
LeftLeg 15.477459 -0.000000 -0.000000
LeftFoot -8.080189 -2.410575 -10.027029
LeftToeBase -13.828405 -0.000000 0.000000
RightUpLeg -88.434694 11.022028 3.479500
RightLeg 113.883576 -0.000000 -0.000000
RightFoot 28.492809 9.090024 0.142388
RightToeBase 22.162628 -0.000000 -0.000000
351
root 3.138696 33.237024 -2.870977 -15.839207 33.924195 -16.059330
Spine 7.450621 -5.804215 7.302012
Head 14.066830 0.292347 8.437260
LeftShoulder -15.889887 43.536966 10.847622
LeftArm 59.709808 22.978546 -63.953290
LeftForeArm -2.224973 -0.000000 40.048412
LeftHand 6.291843 -0.000000 -9.951506
LeftHandThumb1 -26.253704 0.000000 33.147579
RightShoulder -5.079716 -3.796990 -15.200395
RightArm 13.984823 -3.862851 84.621755
RightForeArm -1.649820 0.000000 30.474609
RightHand 1.968484 -0.000000 7.700044
RightHandThumb1 -24.326973 -0.000000 -32.862282
LeftUpLeg 2.320098 -20.689239 8.435399
LeftLeg 15.477972 -0.000000 -0.000000
LeftFoot -8.037815 -2.449440 -9.975866
LeftToeBase -13.901019 -0.000000 0.000000
RightUpLeg -88.511168 10.797912 3.598270
RightLeg 113.417664 -0.000000 -0.000000
RightFoot 28.779617 8.910400 0.426761
RightToeBase 22.444663 -0.000000 -0.000000
352
root 3.143491 33.239102 -2.866121 -15.914829 34.023318 -16.055622
Spine 7.466593 -5.771601 7.266545
Head 14.063298 0.256741 8.419724
LeftShoulder -15.851868 43.519212 10.927386
LeftArm 59.985577 23.310037 -63.423951
LeftForeArm -2.054988 -0.000000 40.310669
LeftHand 6.246597 -0.000000 -10.035637
LeftHandThumb1 -26.253704 0.000000 33.147579
RightShoulder -5.068571 -3.774157 -15.262985
RightArm 14.038336 -3.905513 84.565696
RightForeArm -1.755466 -0.000000 30.622110
RightHand 2.025664 -0.000000 7.583033
RightHandThumb1 -24.326973 -0.000000 -32.862282
LeftUpLeg 2.394653 -20.678168 8.378567
LeftLeg 15.470505 -0.000000 -0.000000
LeftFoot -7.979620 -2.450693 -9.903479
LeftToeBase -14.057579 -0.000000 0.000000
RightUpLeg -88.624716 10.611170 3.702440
RightLeg 112.897440 -0.000000 -0.000000
RightFoot 29.112253 8.720142 0.704588
RightToeBase 22.814643 -0.000000 -0.000000
353
root 3.148257 33.242060 -2.858843 -16.048357 34.081755 -16.097768
Spine 7.521217 -5.716928 7.285635
Head 14.037777 0.227058 8.392998
LeftShoulder -15.821354 43.465201 10.995866
LeftArm 60.186199 23.627351 -62.948540
LeftForeArm -1.834785 -0.000000 40.538934
LeftHand 6.186327 -0.000000 -10.035703
LeftHandThumb1 -26.253704 0.000000 33.147579
RightShoulder -5.069042 -3.727583 -15.316196
RightArm 14.071790 -3.880163 84.478357
RightForeArm -1.986403 -0.000000 30.699501
RightHand 2.030155 -0.000000 7.399509
RightHandThumb1 -24.326973 -0.000000 -32.862282
LeftUpLeg 2.508650 -20.623663 8.363889
LeftLeg 15.463578 -0.000000 -0.000000
LeftFoot -7.859501 -2.535512 -9.996157
LeftToeBase -14.524968 -0.000000 0.000000
RightUpLeg -88.716777 10.446312 3.889068
RightLeg 112.295519 -0.000000 -0.000000
RightFoot 29.600966 8.464640 0.906514
RightToeBase 22.787847 -0.000000 -0.000000
354
root 3.152176 33.245319 -2.850854 -16.210931 34.099906 -16.148154
Spine 7.612616 -5.669043 7.318313
Head 14.005677 0.253198 8.370271
LeftShoulder -15.872120 43.452227 10.990652
LeftArm 60.367847 23.881903 -62.554730
LeftForeArm -1.531553 -0.000000 40.712255
LeftHand 6.093597 -0.000000 -10.103685
LeftHandThumb1 -26.253704 0.000000 33.147579
RightShoulder -5.040201 -3.683284 -15.361801
RightArm 14.104871 -3.807950 84.386436
RightForeArm -2.209819 -0.000000 30.784539
RightHand 2.162992 0.000000 7.620035
RightHandThumb1 -24.326973 -0.000000 -32.862282
LeftUpLeg 2.644351 -20.507864 8.365219
LeftLeg 15.483422 -0.000000 -0.000000
LeftFoot -7.811888 -2.633864 -9.892933
LeftToeBase -14.713274 -0.000000 0.000000
RightUpLeg -88.786496 10.314754 4.090261
RightLeg 111.629245 -0.000000 -0.000000
RightFoot 29.986742 8.232602 1.162377
RightToeBase 22.669983 -0.000000 -0.000000
355
root 3.154956 33.247540 -2.843185 -16.355174 34.091894 -16.182111
Spine 7.704490 -5.570087 7.344371
Head 13.955872 0.250999 8.367665
LeftShoulder -15.946316 43.462710 10.969542
LeftArm 60.563734 24.106466 -62.151843
LeftForeArm -1.331484 -0.000000 40.836225
LeftHand 6.058639 -0.000000 -10.042398
LeftHandThumb1 -26.253704 0.000000 33.147579
RightShoulder -5.052940 -3.623387 -15.371643
RightArm 14.100932 -3.653512 84.276745
RightForeArm -2.476940 -0.000000 30.823699
RightHand 2.284940 0.000000 7.665008
RightHandThumb1 -24.326973 -0.000000 -32.862282
LeftUpLeg 2.753896 -20.318547 8.383137
LeftLeg 15.533431 -0.000000 -0.000000
LeftFoot -7.771594 -2.807700 -9.774908
LeftToeBase -14.920243 -0.000000 0.000000
RightUpLeg -88.881988 10.214295 4.286604
RightLeg 110.890920 -0.000000 -0.000000
RightFoot 30.385166 8.059644 1.285624
RightToeBase 22.543746 -0.000000 -0.000000
356
root 3.158462 33.250576 -2.834753 -16.509525 34.096727 -16.219527
Spine 7.801725 -5.486918 7.365627
Head 13.907904 0.225806 8.384720
LeftShoulder -15.947223 43.457506 11.005971
LeftArm 60.584829 24.301718 -61.901788
LeftForeArm -1.054144 -0.000000 40.975074
LeftHand 6.067888 -0.000000 -9.991090
LeftHandThumb1 -26.253704 0.000000 33.147579
RightShoulder -5.083121 -3.600483 -15.349896
RightArm 14.144091 -3.523527 84.104479
RightForeArm -2.489325 0.000000 30.795850
RightHand 2.077040 -0.000000 7.104240
RightHandThumb1 -24.326973 -0.000000 -32.862282
LeftUpLeg 2.890454 -20.243766 8.390103
LeftLeg 15.552131 -0.000000 -0.000000
LeftFoot -7.805076 -2.894629 -9.619235
LeftToeBase -14.853569 -0.000000 0.000000
RightUpLeg -88.979655 10.086632 4.489702
RightLeg 110.087560 -0.000000 -0.000000
RightFoot 30.787249 7.764053 1.588370
RightToeBase 22.406657 -0.000000 -0.000000
357
root 3.159778 33.251515 -2.829648 -16.627550 34.079308 -16.228527
Spine 7.892343 -5.365611 7.359747
Head 13.837384 0.206418 8.451044
LeftShoulder -15.967068 43.471551 11.050073
LeftArm 60.615096 24.467486 -61.702415
LeftForeArm -0.919617 -0.000000 41.039613
LeftHand 6.020758 -0.000000 -9.957485
LeftHandThumb1 -26.253704 0.000000 33.147579
RightShoulder -5.124584 -3.576581 -15.301708
RightArm 14.148395 -3.383849 83.895145
RightForeArm -2.699823 -0.000000 30.807048
RightHand 2.073247 -0.000000 7.145464
RightHandThumb1 -24.326973 -0.000000 -32.862282
LeftUpLeg 2.991095 -20.155457 8.400477
LeftLeg 15.581539 -0.000000 -0.000000
LeftFoot -7.674793 -3.141324 -9.807256
LeftToeBase -15.396584 -0.000000 0.000000
RightUpLeg -89.125023 9.961056 4.703164
RightLeg 109.196778 -0.000000 -0.000000
RightFoot 31.213393 7.540247 1.701192
RightToeBase 22.415552 -0.000000 -0.000000
